<svg xmlns="http://www.w3.org/2000/svg" xmlns:xlink="http://www.w3.org/1999/xlink" width="50.2" height="26" viewBox="0 0 50.2 26">
  <defs>
    <linearGradient id="linear-gradient" x1="0.5" y1="0.004" x2="0.5" y2="1.003" gradientUnits="objectBoundingBox">
      <stop offset="0" stop-color="#b51660"/>
      <stop offset="0.231" stop-color="#b51660"/>
      <stop offset="0.439" stop-color="#ef5336"/>
      <stop offset="1" stop-color="#ef5336"/>
    </linearGradient>
    <linearGradient id="linear-gradient-2" x1="-0.006" y1="0.5" x2="1.006" y2="0.5" gradientUnits="objectBoundingBox">
      <stop offset="0" stop-color="#ef5336"/>
      <stop offset="1" stop-color="#dd2074"/>
    </linearGradient>
  </defs>
  <g id="Layer_x0020_1" transform="translate(-6.754 -4)">
    <path id="Caminho_123" data-name="Caminho 123" d="M1630,801h7.9l-7.9,2.869Z" transform="translate(-1582.39 -776.94)" fill-rule="evenodd" fill="url(#linear-gradient)"/>
    <path id="Caminho_124" data-name="Caminho 124" d="M55.211,24.11H13.556a3.093,3.093,0,0,1-2.844-2.517L6.835,6.743A2.07,2.07,0,0,1,8.5,4H50.152A3.115,3.115,0,0,1,53,6.517l3.876,14.85A2.07,2.07,0,0,1,55.211,24.11Z" fill-rule="evenodd" fill="url(#linear-gradient-2)"/>
    <path id="Caminho_125" data-name="Caminho 125" d="M1316.67,154.34a6.5,6.5,0,0,1-6.67-6.67,6.668,6.668,0,0,1,9.891-5.839,6.127,6.127,0,0,1,2.316,2.215l-1.611.931a1.757,1.757,0,0,1-1.938-.126c-.126-.076-.252-.176-.377-.252a3.4,3.4,0,0,0-1.611-.4,3.319,3.319,0,0,0-2.467.956,3.42,3.42,0,0,0-.931,2.517,3.46,3.46,0,0,0,.931,2.517,3.358,3.358,0,0,0,2.467.956,3.127,3.127,0,0,0,1.611-.4,3.285,3.285,0,0,0,.377-.252,1.755,1.755,0,0,1,1.938-.126l1.586.931a5.942,5.942,0,0,1-2.316,2.215,6.72,6.72,0,0,1-3.222.805Z" transform="translate(-1270.444 -133.552)" fill="#8c183f"/>
    <path id="Caminho_126" data-name="Caminho 126" d="M1316.67,154.34a6.5,6.5,0,0,1-6.67-6.67,6.668,6.668,0,0,1,9.891-5.839,6.127,6.127,0,0,1,2.316,2.215l-1.611.931a1.757,1.757,0,0,1-1.938-.126c-.126-.076-.252-.176-.377-.252a3.4,3.4,0,0,0-1.611-.4,3.319,3.319,0,0,0-2.467.956,3.42,3.42,0,0,0-.931,2.517,3.46,3.46,0,0,0,.931,2.517,3.358,3.358,0,0,0,2.467.956,3.127,3.127,0,0,0,1.611-.4,3.285,3.285,0,0,0,.377-.252,1.755,1.755,0,0,1,1.938-.126l1.586.931a5.942,5.942,0,0,1-2.316,2.215,6.72,6.72,0,0,1-3.222.805Z" transform="translate(-1270.444 -133.552)" fill="#8c183f"/>
    <path id="Caminho_127" data-name="Caminho 127" d="M1316.67,141.34a6.5,6.5,0,0,1-6.67-6.67,6.668,6.668,0,0,1,9.891-5.839,6.128,6.128,0,0,1,2.316,2.215l-1.611.931a1.757,1.757,0,0,1-1.938-.126c-.126-.076-.252-.176-.377-.252a3.4,3.4,0,0,0-1.611-.4,3.319,3.319,0,0,0-2.467.956,3.42,3.42,0,0,0-.931,2.517,3.46,3.46,0,0,0,.931,2.517,3.358,3.358,0,0,0,2.467.956,3.127,3.127,0,0,0,1.611-.4,3.275,3.275,0,0,0,.377-.252,1.755,1.755,0,0,1,1.938-.126l1.586.931a5.942,5.942,0,0,1-2.316,2.215,6.72,6.72,0,0,1-3.222.805Z" transform="translate(-1270.444 -120.879)" fill="#fff"/>
    <path id="Caminho_128" data-name="Caminho 128" d="M1316.67,141.34a6.5,6.5,0,0,1-6.67-6.67,6.668,6.668,0,0,1,9.891-5.839,6.128,6.128,0,0,1,2.316,2.215l-1.611.931a1.757,1.757,0,0,1-1.938-.126c-.126-.076-.252-.176-.377-.252a3.4,3.4,0,0,0-1.611-.4,3.319,3.319,0,0,0-2.467.956,3.42,3.42,0,0,0-.931,2.517,3.46,3.46,0,0,0,.931,2.517,3.358,3.358,0,0,0,2.467.956,3.127,3.127,0,0,0,1.611-.4,3.275,3.275,0,0,0,.377-.252,1.755,1.755,0,0,1,1.938-.126l1.586.931a5.942,5.942,0,0,1-2.316,2.215,6.72,6.72,0,0,1-3.222.805Z" transform="translate(-1270.444 -120.879)" fill="#fff"/>
    <path id="Caminho_129" data-name="Caminho 129" d="M778.038,153v12.761h-1.485A1.767,1.767,0,0,1,774.791,164v-5.135L771.7,164h-.327l-3.1-5.109V164a1.767,1.767,0,0,1-1.762,1.762H765V153h2.265a1.764,1.764,0,0,1,1.51.856l2.743,4.606,2.744-4.606a1.764,1.764,0,0,1,1.51-.856Z" transform="translate(-739.162 -145.25)" fill="#8c183f"/>
    <path id="Caminho_130" data-name="Caminho 130" d="M778.038,153v12.761h-1.485A1.767,1.767,0,0,1,774.791,164v-5.135L771.7,164h-.327l-3.1-5.109V164a1.767,1.767,0,0,1-1.762,1.762H765V153h2.265a1.764,1.764,0,0,1,1.51.856l2.743,4.606,2.744-4.606a1.764,1.764,0,0,1,1.51-.856Z" transform="translate(-739.162 -145.25)" fill="#8c183f"/>
    <path id="Caminho_131" data-name="Caminho 131" d="M778.038,139v12.761h-1.485A1.767,1.767,0,0,1,774.791,150v-5.135L771.7,150h-.327l-3.1-5.109V150a1.767,1.767,0,0,1-1.762,1.762H765V139h2.265a1.764,1.764,0,0,1,1.51.856l2.743,4.606,2.744-4.606a1.764,1.764,0,0,1,1.51-.856Z" transform="translate(-739.162 -131.602)" fill="#fff"/>
    <path id="Caminho_132" data-name="Caminho 132" d="M778.038,139v12.761h-1.485A1.767,1.767,0,0,1,774.791,150v-5.135L771.7,150h-.327l-3.1-5.109V150a1.767,1.767,0,0,1-1.762,1.762H765V139h2.265a1.764,1.764,0,0,1,1.51.856l2.743,4.606,2.744-4.606a1.764,1.764,0,0,1,1.51-.856Z" transform="translate(-739.162 -131.602)" fill="#fff"/>
    <path id="Caminho_133" data-name="Caminho 133" d="M225.88,147.739a1.289,1.289,0,0,1,1.284,1.284,6.106,6.106,0,0,1-1.762,4.556,6.246,6.246,0,0,1-4.581,1.737,6.638,6.638,0,0,1-4.908-1.913,6.67,6.67,0,0,1,4.732-11.4,6.846,6.846,0,0,1,3.272.805,6.134,6.134,0,0,1,2.316,2.139l-1.636.931a1.821,1.821,0,0,1-1.888-.076c-.126-.076-.252-.151-.4-.227a3.647,3.647,0,0,0-1.661-.352,3.321,3.321,0,0,0-3.448,3.5,3.543,3.543,0,0,0,.956,2.492,3.507,3.507,0,0,0,2.693,1.032,2.856,2.856,0,0,0,2.945-1.686h-1.359a1.767,1.767,0,0,1-1.762-1.762v-1.057h5.21Z" transform="translate(-202.03 -134.527)" fill="#8c183f"/>
    <path id="Caminho_134" data-name="Caminho 134" d="M225.88,147.739a1.289,1.289,0,0,1,1.284,1.284,6.106,6.106,0,0,1-1.762,4.556,6.246,6.246,0,0,1-4.581,1.737,6.638,6.638,0,0,1-4.908-1.913,6.67,6.67,0,0,1,4.732-11.4,6.846,6.846,0,0,1,3.272.805,6.134,6.134,0,0,1,2.316,2.139l-1.636.931a1.821,1.821,0,0,1-1.888-.076c-.126-.076-.252-.151-.4-.227a3.647,3.647,0,0,0-1.661-.352,3.321,3.321,0,0,0-3.448,3.5,3.543,3.543,0,0,0,.956,2.492,3.507,3.507,0,0,0,2.693,1.032,2.856,2.856,0,0,0,2.945-1.686h-1.359a1.767,1.767,0,0,1-1.762-1.762v-1.057h5.21Z" transform="translate(-202.03 -134.527)" fill="#8c183f"/>
    <path id="Caminho_135" data-name="Caminho 135" d="M225.88,133.739a1.289,1.289,0,0,1,1.284,1.284,6.106,6.106,0,0,1-1.762,4.556,6.246,6.246,0,0,1-4.581,1.737,6.638,6.638,0,0,1-4.908-1.913,6.67,6.67,0,0,1,4.732-11.4,6.846,6.846,0,0,1,3.272.805,6.134,6.134,0,0,1,2.316,2.139l-1.636.931a1.821,1.821,0,0,1-1.888-.076c-.126-.076-.252-.151-.4-.227a3.647,3.647,0,0,0-1.661-.352,3.321,3.321,0,0,0-3.448,3.5,3.543,3.543,0,0,0,.956,2.492,3.507,3.507,0,0,0,2.693,1.032,2.856,2.856,0,0,0,2.945-1.686h-1.359a1.767,1.767,0,0,1-1.762-1.762v-1.057h5.21Z" transform="translate(-202.03 -120.879)" fill="#fff"/>
    <path id="Caminho_136" data-name="Caminho 136" d="M225.88,133.739a1.289,1.289,0,0,1,1.284,1.284,6.106,6.106,0,0,1-1.762,4.556,6.246,6.246,0,0,1-4.581,1.737,6.638,6.638,0,0,1-4.908-1.913,6.67,6.67,0,0,1,4.732-11.4,6.846,6.846,0,0,1,3.272.805,6.134,6.134,0,0,1,2.316,2.139l-1.636.931a1.821,1.821,0,0,1-1.888-.076c-.126-.076-.252-.151-.4-.227a3.647,3.647,0,0,0-1.661-.352,3.321,3.321,0,0,0-3.448,3.5,3.543,3.543,0,0,0,.956,2.492,3.507,3.507,0,0,0,2.693,1.032,2.856,2.856,0,0,0,2.945-1.686h-1.359a1.767,1.767,0,0,1-1.762-1.762v-1.057h5.21Z" transform="translate(-202.03 -120.879)" fill="#fff"/>
    <path id="Caminho_137" data-name="Caminho 137" d="M326.284,860.272a1.429,1.429,0,0,1-.378-1.007,1.387,1.387,0,0,1,.378-1.007,1.337,1.337,0,0,1,1.913,0,1.429,1.429,0,0,1,.378,1.007,1.387,1.387,0,0,1-.378,1.007,1.337,1.337,0,0,1-1.913,0ZM325,859.265a2.241,2.241,0,0,0,.629,1.611,2.126,2.126,0,0,0,1.611.654,2.181,2.181,0,0,0,1.611-.654,2.31,2.31,0,0,0,0-3.222A2.09,2.09,0,0,0,327.24,857a2.194,2.194,0,0,0-2.24,2.265Zm7.651,2.165v-2.794l2.215,2.794h.73v-4.354h-.881v2.794l-2.19-2.794h-.755v4.354Zm8.457,0v-.805h-2.215v-3.549h-.906v4.354h3.121Zm3.02,0v-4.354h-.881v4.354Zm3.322,0v-2.794l2.215,2.794h.73v-4.354h-.881v2.794l-2.19-2.794h-.755v4.354Zm8.633,0v-.805h-2.366v-1.107h1.863v-.78h-1.863v-.831h2.29V857.1h-3.2v4.354h3.272Z" transform="translate(-310.236 -831.53)" fill="#848688"/>
  </g>
</svg>
