<svg xmlns="http://www.w3.org/2000/svg" width="221.373" height="26" viewBox="0 0 221.373 26">
  <path id="Caminho_140" data-name="Caminho 140" d="M20.106-.156,20.022-.17l-5.49,15.175H11.773L6.311-.113,6.226-.1l.394,9v3.224l2.2.422v2.463H.328V12.542l2.182-.422V-2.591L.328-3.013V-5.491H7.873L13.1,9.614h.084l5.265-15.1h7.573v2.478l-2.2.422v14.71l2.2.422v2.463H17.53V12.542l2.182-.422V8.9Zm7.165,12.7,1.464-.211L34.971-5.491H39.18l6.194,17.821,1.464.211v2.463H39.856V12.542l1.422-.253-.9-2.815H33.733l-.9,2.815,1.422.253v2.463H27.271Zm7.433-6.1h4.7L37.1-.775h-.084ZM57.4-5.491a8.5,8.5,0,0,1,5.476,1.6A5.353,5.353,0,0,1,64.857.52a4.443,4.443,0,0,1-.831,2.689,5.806,5.806,0,0,1-2.435,1.844A4.423,4.423,0,0,1,64.2,6.834a5.632,5.632,0,0,1,.8,3.09v1.042a1.777,1.777,0,0,0,.267,1.049,1.193,1.193,0,0,0,.887.443l.507.07v2.478H64.533A3.326,3.326,0,0,1,61.7,13.921a4.532,4.532,0,0,1-.816-2.8V9.952a3.3,3.3,0,0,0-.8-2.344,3.051,3.051,0,0,0-2.245-.894H54.482v5.406l2.2.422v2.463H48.19V12.542l2.182-.422V-2.591L48.19-3.013V-5.491H57.4ZM54.482,3.547h2.844A3.888,3.888,0,0,0,59.9,2.815,2.621,2.621,0,0,0,60.76.7a2.923,2.923,0,0,0-.852-2.2A3.479,3.479,0,0,0,57.4-2.323H54.482ZM68-3.013V-5.491h8.488v2.478l-2.2.422v14.71l2.2.422v2.463H68V12.542l2.2-.422V-2.591Zm31-2.478v2.478l-2.2.422v17.6H92.7L84.423,1.21l-.084.014v10.9l2.2.422v2.463H78.047V12.542l2.182-.422V-2.591l-2.182-.422V-5.491h6.292L92.616,8.3,92.7,8.29V-2.591l-2.2-.422V-5.491h8.488Zm18.314,18.215a9.112,9.112,0,0,1-2.914,1.781,12.707,12.707,0,0,1-4.842.8,8.836,8.836,0,0,1-6.757-2.78,10.147,10.147,0,0,1-2.6-7.228v-.7A10.841,10.841,0,0,1,102.759-2.9a8.556,8.556,0,0,1,6.708-2.886,12.146,12.146,0,0,1,4.4.767,9.486,9.486,0,0,1,3.315,2.076V1.182H114.14l-.577-2.745a4.21,4.21,0,0,0-1.485-.767,7.1,7.1,0,0,0-2.119-.289,4.93,4.93,0,0,0-4.181,1.985,8.423,8.423,0,0,0-1.492,5.194v.732a7.863,7.863,0,0,0,1.464,4.99,5.049,5.049,0,0,0,4.223,1.865,7.78,7.78,0,0,0,2.006-.211,4.413,4.413,0,0,0,1.2-.493V7.967l-2.928-.225V4.856h7.053Zm1.844-.183,1.464-.211,6.236-17.821h4.209l6.194,17.821,1.464.211v2.463h-6.982V12.542l1.422-.253-.9-2.815h-6.644l-.9,2.815,1.422.253v2.463h-6.982Zm7.433-6.1h4.7L128.977-.775h-.084Zm2.6-17.146h4.35l.028.084-3.885,3.66h-3.294Zm27.7,5.208a8.058,8.058,0,0,1,5.553,1.809,6.037,6.037,0,0,1,2.034,4.737,5.989,5.989,0,0,1-2.034,4.73,8.119,8.119,0,0,1-5.553,1.788h-3.463v4.547l2.2.422v2.463h-8.488V12.542l2.182-.422V-2.591l-2.182-.422V-5.491h9.755Zm-3.463,9.9h3.463a3.4,3.4,0,0,0,2.6-.936,3.345,3.345,0,0,0,.88-2.386,3.484,3.484,0,0,0-.88-2.442,3.34,3.34,0,0,0-2.6-.964h-3.463Zm31.1.507a10.892,10.892,0,0,1-2.576,7.447,8.534,8.534,0,0,1-6.743,2.942,8.455,8.455,0,0,1-6.708-2.942,10.948,10.948,0,0,1-2.555-7.447V4.6a10.98,10.98,0,0,1,2.548-7.433,8.416,8.416,0,0,1,6.7-2.956,8.537,8.537,0,0,1,6.75,2.956A10.887,10.887,0,0,1,184.524,4.6Zm-4.1-.338A9.153,9.153,0,0,0,179.1-.592a4.4,4.4,0,0,0-3.913-1.985,4.288,4.288,0,0,0-3.864,1.971,9.411,9.411,0,0,0-1.274,5.18v.338a9.424,9.424,0,0,0,1.288,5.215,4.3,4.3,0,0,0,3.864,1.978,4.382,4.382,0,0,0,3.913-1.978,9.306,9.306,0,0,0,1.309-5.215ZM201.74,1.055h-3.083l-.535-2.815a5.449,5.449,0,0,0-1.563-.591,9.088,9.088,0,0,0-2.182-.253,4.2,4.2,0,0,0-2.611.711,2.217,2.217,0,0,0-.922,1.837,2.009,2.009,0,0,0,.964,1.71,13.336,13.336,0,0,0,3.329,1.415,12.988,12.988,0,0,1,5.145,2.492,5.168,5.168,0,0,1,1.753,4.068,4.866,4.866,0,0,1-2.083,4.153,9.1,9.1,0,0,1-5.49,1.52,11.905,11.905,0,0,1-4.4-.774,9.061,9.061,0,0,1-3.273-2.14V8.107h3.181l.436,2.914a4.981,4.981,0,0,0,1.682.838,7.961,7.961,0,0,0,2.372.331,4.1,4.1,0,0,0,2.569-.69,2.224,2.224,0,0,0,.88-1.844,2.379,2.379,0,0,0-.838-1.9A8.473,8.473,0,0,0,194.139,6.4,16.713,16.713,0,0,1,188.62,3.9a4.748,4.748,0,0,1-1.872-3.97,4.88,4.88,0,0,1,2.112-4.075,8.8,8.8,0,0,1,5.307-1.626,12.346,12.346,0,0,1,4.308.718A9.944,9.944,0,0,1,201.74-3.14ZM221.7-5.491V-.029h-3.153l-.169-2.295h-3.773V12.119l2.2.422v2.463h-8.5V12.542l2.2-.422V-2.323h-3.759l-.169,2.295h-3.139V-5.491Z" transform="translate(-0.328 10.699)" fill="#333"/>
</svg>
