<svg xmlns="http://www.w3.org/2000/svg" width="463.843" height="368.566" viewBox="0 0 463.843 368.566">
  <g id="_013-storm-2" data-name="013-storm-2" transform="translate(0.001 -0.395)">
    <path id="Caminho_46" data-name="Caminho 46" d="M367.836,288.961h8A88,88,0,1,0,358.41,114.7,71.864,71.864,0,0,0,257.762,63.609,95.923,95.923,0,1,0,77.434,129.082a79.959,79.959,0,0,0,2.4,159.879" fill="#a3d4f7"/>
    <path id="Caminho_47" data-name="Caminho 47" d="M215.836,160.961h-64l-32,96h72l-22.594,112,94.594-144h-64Zm0,0" fill="#ffa754"/>
    <path id="Caminho_48" data-name="Caminho 48" d="M327.836,336.961a32,32,0,0,1-64,0c0-24,32-80,32-80S327.836,312.961,327.836,336.961Zm0,0" fill="#60a2d7"/>
  </g>
</svg>
