<svg id="_031-snowflake" data-name="031-snowflake" xmlns="http://www.w3.org/2000/svg" width="400" height="400" viewBox="0 0 400 400">
  <g id="Grupo_17" data-name="Grupo 17">
    <path id="Caminho_127" data-name="Caminho 127" d="M200,400a8,8,0,0,1-8-8V248a8,8,0,0,1,16,0V392A8,8,0,0,1,200,400Zm0,0" fill="#a3d4f7"/>
    <path id="Caminho_128" data-name="Caminho 128" d="M232,384a8,8,0,0,1-5.656-2.344L200,355.312l-26.344,26.344a8,8,0,0,1-11.312-11.312l32-32a8,8,0,0,1,11.313,0l32,32A8,8,0,0,1,232,384Zm0,0" fill="#a3d4f7"/>
    <path id="Caminho_129" data-name="Caminho 129" d="M200,160a8,8,0,0,1-8-8V8a8,8,0,0,1,16,0V152A8,8,0,0,1,200,160Zm0,0" fill="#a3d4f7"/>
    <path id="Caminho_130" data-name="Caminho 130" d="M200,64a8,8,0,0,1-5.656-2.344l-32-32a8,8,0,0,1,11.312-11.312L200,44.688l26.344-26.344a8,8,0,0,1,11.312,11.312l-32,32A8,8,0,0,1,200,64Zm0,0" fill="#a3d4f7"/>
    <path id="Caminho_131" data-name="Caminho 131" d="M392,208H248a8,8,0,0,1,0-16H392a8,8,0,0,1,0,16Zm0,0" fill="#a3d4f7"/>
    <path id="Caminho_132" data-name="Caminho 132" d="M376,240a8,8,0,0,1-5.656-2.344l-32-32a8,8,0,0,1,0-11.312l32-32a8,8,0,0,1,11.312,11.312L355.312,200l26.344,26.344A8,8,0,0,1,376,240Zm0,0" fill="#a3d4f7"/>
    <path id="Caminho_133" data-name="Caminho 133" d="M152,208H8a8,8,0,0,1,0-16H152a8,8,0,0,1,0,16Zm0,0" fill="#a3d4f7"/>
    <path id="Caminho_134" data-name="Caminho 134" d="M24,240a8,8,0,0,1-5.656-13.656L44.688,200,18.344,173.656a8,8,0,0,1,11.312-11.312l32,32a8,8,0,0,1,0,11.313l-32,32A8,8,0,0,1,24,240Zm0,0" fill="#a3d4f7"/>
  </g>
  <path id="Caminho_135" data-name="Caminho 135" d="M360,360l-64-16-16-64,64,16Zm0,0" fill="#b7f9fe"/>
  <path id="Caminho_136" data-name="Caminho 136" d="M360,368a8.1,8.1,0,0,1-1.937-.238l-64-16a8.009,8.009,0,0,1-5.824-5.816l-16-64a8,8,0,0,1,9.7-9.707l64,16a8.009,8.009,0,0,1,5.824,5.816l16,64A8,8,0,0,1,360,368Zm-57.406-30.6,46.4,11.6-11.6-46.4-46.4-11.6Zm0,0" fill="#a3d4f7"/>
  <path id="Caminho_137" data-name="Caminho 137" d="M280,288a8,8,0,0,1-5.656-2.344l-48-48a8,8,0,0,1,11.312-11.312l48,48A8,8,0,0,1,280,288Zm0,0" fill="#a3d4f7"/>
  <path id="Caminho_138" data-name="Caminho 138" d="M248,320a8,8,0,0,1-7.93-9.137l8-56a8.009,8.009,0,0,1,6.785-6.785l56-8a8,8,0,0,1,2.273,15.844l-50.066,7.148-7.152,50.066A8,8,0,0,1,248,320Zm0,0" fill="#a3d4f7"/>
  <path id="Caminho_139" data-name="Caminho 139" d="M40,360l64-16,16-64L56,296Zm0,0" fill="#b7f9fe"/>
  <path id="Caminho_140" data-name="Caminho 140" d="M40,368a8,8,0,0,1-7.762-9.945l16-64a8.009,8.009,0,0,1,5.824-5.816l64-16a8,8,0,0,1,9.7,9.707l-16,64a8.009,8.009,0,0,1-5.824,5.816l-64,16A8.1,8.1,0,0,1,40,368Zm22.594-65.4L50.992,349l46.4-11.6,11.6-46.4Zm0,0" fill="#a3d4f7"/>
  <path id="Caminho_141" data-name="Caminho 141" d="M120,288a8,8,0,0,1-5.656-13.656l48-48a8,8,0,0,1,11.312,11.312l-48,48A8,8,0,0,1,120,288Zm0,0" fill="#a3d4f7"/>
  <path id="Caminho_142" data-name="Caminho 142" d="M152,320a8,8,0,0,1-7.91-6.863l-7.152-50.066-50.066-7.148a8,8,0,0,1,2.273-15.844l56,8a8.009,8.009,0,0,1,6.785,6.785l8,56A8,8,0,0,1,152,320Zm0,0" fill="#a3d4f7"/>
  <path id="Caminho_143" data-name="Caminho 143" d="M360,40,296,56l-16,64,64-16Zm0,0" fill="#b7f9fe"/>
  <path id="Caminho_144" data-name="Caminho 144" d="M280,128a8,8,0,0,1-7.762-9.945l16-64a8.009,8.009,0,0,1,5.824-5.816l64-16a8,8,0,0,1,9.7,9.707l-16,64a8.009,8.009,0,0,1-5.824,5.816l-64,16A8.1,8.1,0,0,1,280,128Zm22.594-65.4-11.6,46.4,46.4-11.6,11.6-46.4Zm0,0" fill="#a3d4f7"/>
  <path id="Caminho_145" data-name="Caminho 145" d="M232,176a8,8,0,0,1-5.656-13.656l48-48a8,8,0,0,1,11.312,11.312l-48,48A8,8,0,0,1,232,176Zm0,0" fill="#a3d4f7"/>
  <path id="Caminho_146" data-name="Caminho 146" d="M312,160a8.623,8.623,0,0,1-1.145-.078l-56-8a8.009,8.009,0,0,1-6.785-6.785l-8-56a8,8,0,1,1,15.84-2.273l7.152,50.066,50.066,7.148A8,8,0,0,1,312,160Zm0,0" fill="#a3d4f7"/>
  <path id="Caminho_147" data-name="Caminho 147" d="M40,40l64,16,16,64L56,104Zm0,0" fill="#b7f9fe"/>
  <path id="Caminho_148" data-name="Caminho 148" d="M120,128a8.1,8.1,0,0,1-1.937-.238l-64-16a8.009,8.009,0,0,1-5.824-5.816l-16-64a8,8,0,0,1,9.7-9.707l64,16a8.009,8.009,0,0,1,5.824,5.816l16,64A8,8,0,0,1,120,128ZM62.594,97.4l46.4,11.6L97.39,62.6,50.992,51Zm0,0" fill="#a3d4f7"/>
  <path id="Caminho_149" data-name="Caminho 149" d="M168,176a8,8,0,0,1-5.656-2.344l-48-48a8,8,0,0,1,11.312-11.312l48,48A8,8,0,0,1,168,176Zm0,0" fill="#a3d4f7"/>
  <path id="Caminho_150" data-name="Caminho 150" d="M88,160a8,8,0,0,1-1.129-15.922l50.066-7.148,7.152-50.066a8,8,0,1,1,15.84,2.273l-8,56a8.009,8.009,0,0,1-6.785,6.785l-56,8A8.623,8.623,0,0,1,88,160Zm0,0" fill="#a3d4f7"/>
  <path id="Caminho_151" data-name="Caminho 151" d="M248,200a48,48,0,1,1-48-48A48,48,0,0,1,248,200Zm0,0" fill="#b7f9fe"/>
  <path id="Caminho_152" data-name="Caminho 152" d="M200,256a56,56,0,1,1,56-56A56,56,0,0,1,200,256Zm0-96a40,40,0,1,0,40,40A40,40,0,0,0,200,160Zm0,0" fill="#a3d4f7"/>
</svg>
