<svg xmlns="http://www.w3.org/2000/svg" width="480" height="176.072" viewBox="0 0 480 176.072">
  <g id="_050-windy-3" data-name="050-windy-3" transform="translate(0 0.001)">
    <path id="Caminho_280" data-name="Caminho 280" d="M356,32.035a195.165,195.165,0,0,1-60.137-8.289,179.314,179.314,0,0,0-55.926-7.711,178.974,178.974,0,0,0-55.84,7.711A194.935,194.935,0,0,1,124,32.035a195.116,195.116,0,0,1-60.129-8.289A179.186,179.186,0,0,0,8,16.035a8,8,0,0,1,0-16A195.067,195.067,0,0,1,68.121,8.324,179.12,179.12,0,0,0,124,16.035a179.006,179.006,0,0,0,55.84-7.711,195.138,195.138,0,0,1,60.1-8.289,195.308,195.308,0,0,1,60.141,8.289A179.29,179.29,0,0,0,356,16.035a179.184,179.184,0,0,0,55.887-7.711A195.253,195.253,0,0,1,472,.035a8,8,0,0,1,0,16,179.3,179.3,0,0,0-55.887,7.711A195.253,195.253,0,0,1,356,32.035Zm0,0" fill="#60a2d7"/>
    <path id="Caminho_281" data-name="Caminho 281" d="M356,80.035a195.165,195.165,0,0,1-60.137-8.289,179.314,179.314,0,0,0-55.926-7.711,178.974,178.974,0,0,0-55.84,7.711A194.935,194.935,0,0,1,124,80.035a195.116,195.116,0,0,1-60.129-8.289A179.186,179.186,0,0,0,8,64.035a8,8,0,0,1,0-16,195.067,195.067,0,0,1,60.121,8.289A179.12,179.12,0,0,0,124,64.035a179.006,179.006,0,0,0,55.84-7.711,195.138,195.138,0,0,1,60.1-8.289,195.308,195.308,0,0,1,60.141,8.289A179.29,179.29,0,0,0,356,64.035a179.184,179.184,0,0,0,55.887-7.711A195.253,195.253,0,0,1,472,48.035a8,8,0,0,1,0,16,179.3,179.3,0,0,0-55.887,7.711A195.253,195.253,0,0,1,356,80.035Zm0,0" fill="#60a2d7"/>
    <path id="Caminho_282" data-name="Caminho 282" d="M356,128.035a195.165,195.165,0,0,1-60.137-8.289,179.314,179.314,0,0,0-55.926-7.711,178.974,178.974,0,0,0-55.84,7.711,194.935,194.935,0,0,1-60.1,8.289,195.116,195.116,0,0,1-60.129-8.289A179.186,179.186,0,0,0,8,112.035a8,8,0,0,1,0-16,195.067,195.067,0,0,1,60.121,8.289A179.12,179.12,0,0,0,124,112.035a179.006,179.006,0,0,0,55.84-7.711,195.138,195.138,0,0,1,60.1-8.289,195.308,195.308,0,0,1,60.141,8.289A179.29,179.29,0,0,0,356,112.035a179.184,179.184,0,0,0,55.887-7.711A195.253,195.253,0,0,1,472,96.035a8,8,0,0,1,0,16,179.3,179.3,0,0,0-55.887,7.711A195.253,195.253,0,0,1,356,128.035Zm0,0" fill="#60a2d7"/>
    <path id="Caminho_283" data-name="Caminho 283" d="M356,176.035a195.165,195.165,0,0,1-60.137-8.289,179.314,179.314,0,0,0-55.926-7.711,178.974,178.974,0,0,0-55.84,7.711,194.935,194.935,0,0,1-60.1,8.289,195.116,195.116,0,0,1-60.129-8.289A179.186,179.186,0,0,0,8,160.035a8,8,0,0,1,0-16,195.067,195.067,0,0,1,60.121,8.289A179.12,179.12,0,0,0,124,160.035a179.006,179.006,0,0,0,55.84-7.711,195.138,195.138,0,0,1,60.1-8.289,195.308,195.308,0,0,1,60.141,8.289A179.29,179.29,0,0,0,356,160.035a179.184,179.184,0,0,0,55.887-7.711A195.253,195.253,0,0,1,472,144.035a8,8,0,0,1,0,16,179.3,179.3,0,0,0-55.887,7.711A195.253,195.253,0,0,1,356,176.035Zm0,0" fill="#60a2d7"/>
  </g>
</svg>
