<svg xmlns="http://www.w3.org/2000/svg" width="463.837" height="368.565" viewBox="0 0 463.837 368.565">
  <g id="_011-cloudy" data-name="011-cloudy" transform="translate(0.001 -0.392)">
    <path id="Caminho_39" data-name="Caminho 39" d="M375.836,112.957A87.891,87.891,0,0,0,358.41,114.7,71.864,71.864,0,0,0,257.762,63.605,95.922,95.922,0,0,0,77.434,129.074a79.961,79.961,0,0,0,2.4,159.883h296a88,88,0,0,0,0-176Zm0,0" fill="#60a2d7"/>
    <path id="Caminho_40" data-name="Caminho 40" d="M375.836,192.957A87.891,87.891,0,0,0,358.41,194.7a71.864,71.864,0,0,0-100.648-51.094A95.922,95.922,0,0,0,77.434,209.074a79.961,79.961,0,0,0,2.4,159.883h296a88,88,0,0,0,0-176Zm0,0" fill="#a3d4f7"/>
  </g>
</svg>
