<svg xmlns="http://www.w3.org/2000/svg" width="463.837" height="464.101" viewBox="0 0 463.837 464.101">
  <g id="_007-night" data-name="007-night" transform="translate(-0.05 0)">
    <path id="Caminho_20" data-name="Caminho 20" d="M410.453,208.652a103.2,103.2,0,0,1-102-104.277,107.638,107.638,0,0,1,68-99.3A146.815,146.815,0,0,0,332.742.1a142.454,142.454,0,0,0-140.855,144,142.454,142.454,0,0,0,140.855,144,137.452,137.452,0,0,0,131.145-94.344,93.034,93.034,0,0,1-53.434,14.895Zm0,0" fill="#fce666"/>
    <path id="Caminho_21" data-name="Caminho 21" d="M375.887,288.1a88.184,88.184,0,0,0-17.426,1.742A71.862,71.862,0,0,0,257.813,238.75,95.923,95.923,0,1,0,77.485,304.223a79.959,79.959,0,0,0,2.4,159.879h296a88,88,0,0,0,0-176Zm0,0" fill="#a3d4f7"/>
    <path id="Caminho_22" data-name="Caminho 22" d="M407.887,114.438,432.606,128.1l-4.719-28.945,20-20.5-27.641-4.223L407.887,48.1,395.524,74.438l-27.637,4.223,20,20.5L383.164,128.1Zm0,0" fill="#ffde3d"/>
  </g>
</svg>
