<svg xmlns="http://www.w3.org/2000/svg" width="464.122" height="432.073" viewBox="0 0 464.122 432.073">
  <g id="_020-storm-3" data-name="020-storm-3" transform="translate(0 -0.06)">
    <path id="Caminho_90" data-name="Caminho 90" d="M426.41,150.758a73.712,73.712,0,0,1-72-75.313,77.724,77.724,0,0,1,48-71.727A101.56,101.56,0,0,0,371.555.133c-54.918,0-99.434,46.562-99.434,104s44.516,104,99.434,104A97.228,97.228,0,0,0,464.121,140a64.58,64.58,0,0,1-37.711,10.758Zm0,0" fill="#fce666"/>
    <path id="Caminho_91" data-name="Caminho 91" d="M363.156,336.133a83.135,83.135,0,1,0,0-166.223,86.934,86.934,0,0,0-16.8,1.648,69.157,69.157,0,0,0-68.137-54.535,70.436,70.436,0,0,0-29.039,6.277A92.944,92.944,0,0,0,69.644,154.8a88.52,88.52,0,0,0,5.422,30.336,75.512,75.512,0,1,0,2.3,151" fill="#a3d4f7"/>
    <path id="Caminho_92" data-name="Caminho 92" d="M201.531,432.133l94.59-144h-64l16-64h-64l-32,96h72Z" fill="#ffa754"/>
  </g>
</svg>
