<svg xmlns="http://www.w3.org/2000/svg" width="463.844" height="376.566" viewBox="0 0 463.844 376.566">
  <g id="_006-snowy" data-name="006-snowy" transform="translate(0.001 -0.395)">
    <path id="Caminho_16" data-name="Caminho 16" d="M367.836,288.961h8A88,88,0,1,0,358.41,114.7,71.864,71.864,0,0,0,257.762,63.609,95.923,95.923,0,1,0,77.434,129.082a79.959,79.959,0,0,0,2.4,159.879" fill="#a3d4f7"/>
    <g id="Grupo_4" data-name="Grupo 4">
      <path id="Caminho_17" data-name="Caminho 17" d="M191.836,320.961H171.145l18.348-18.344A8,8,0,0,0,178.18,291.3l-18.344,18.344V288.961a8,8,0,0,0-16,0v20.688L125.492,291.3a8,8,0,0,0-11.312,11.312l18.344,18.344H111.836a8,8,0,1,0,0,16h20.688L114.18,355.3a8,8,0,1,0,11.313,11.313l18.344-18.344v20.688a8,8,0,0,0,16,0V348.273l18.344,18.344A8,8,0,0,0,189.492,355.3l-18.348-18.344h20.691a8,8,0,1,0,0-16Zm0,0" fill="#b7f9fe"/>
      <path id="Caminho_18" data-name="Caminho 18" d="M335.836,304.961H315.145l18.348-18.344A8,8,0,0,0,322.18,275.3l-18.344,18.344V272.961a8,8,0,0,0-16,0v20.688L269.492,275.3a8,8,0,0,0-11.312,11.312l18.344,18.344H255.836a8,8,0,0,0,0,16h20.687L258.18,339.3a8,8,0,1,0,11.313,11.313l18.344-18.344v20.688a8,8,0,0,0,16,0V332.273l18.344,18.344A8,8,0,0,0,333.492,339.3l-18.348-18.344h20.691a8,8,0,0,0,0-16Zm0,0" fill="#b7f9fe"/>
      <path id="Caminho_19" data-name="Caminho 19" d="M245.492,243.3l-18.348-18.344h20.691a8,8,0,0,0,0-16H227.144l18.348-18.344A8,8,0,0,0,234.18,179.3l-18.344,18.344V176.961a8,8,0,0,0-16,0v20.688L181.492,179.3a8,8,0,0,0-11.312,11.312l18.344,18.344H167.836a8,8,0,0,0,0,16h20.688L170.18,243.3a8,8,0,1,0,11.313,11.313l18.344-18.344v20.687a8,8,0,0,0,16,0V236.274l18.344,18.344a8,8,0,0,0,11.312-11.312Zm0,0" fill="#b7f9fe"/>
    </g>
  </g>
</svg>
