<svg xmlns="http://www.w3.org/2000/svg" width="464.122" height="416.073" viewBox="0 0 464.122 416.073">
  <g id="_021-night-2" data-name="021-night-2" transform="translate(0 -0.06)">
    <path id="Caminho_93" data-name="Caminho 93" d="M426.41,150.758a73.712,73.712,0,0,1-72-75.313,77.724,77.724,0,0,1,48-71.727A101.56,101.56,0,0,0,371.555.133c-54.918,0-99.434,46.562-99.434,104s44.516,104,99.434,104A97.228,97.228,0,0,0,464.121,140a64.58,64.58,0,0,1-37.711,10.758Zm0,0" fill="#fce666"/>
    <path id="Caminho_94" data-name="Caminho 94" d="M363.156,336.133a83.135,83.135,0,1,0,0-166.223,86.934,86.934,0,0,0-16.8,1.648,69.157,69.157,0,0,0-68.137-54.535,70.436,70.436,0,0,0-29.039,6.277A92.944,92.944,0,0,0,69.644,154.8a88.52,88.52,0,0,0,5.422,30.336,75.512,75.512,0,1,0,2.3,151" fill="#a3d4f7"/>
    <g id="Grupo_12" data-name="Grupo 12">
      <path id="Caminho_95" data-name="Caminho 95" d="M328.121,368.133a32,32,0,0,1-64,0c0-24,32-80,32-80S328.121,344.133,328.121,368.133Zm0,0" fill="#60a2d7"/>
      <path id="Caminho_96" data-name="Caminho 96" d="M248.121,288.133a32,32,0,0,1-64,0c0-24,32-80,32-80S248.121,264.133,248.121,288.133Zm0,0" fill="#60a2d7"/>
      <path id="Caminho_97" data-name="Caminho 97" d="M176.121,384.133a32,32,0,0,1-64,0c0-24,32-80,32-80S176.121,360.133,176.121,384.133Zm0,0" fill="#60a2d7"/>
    </g>
  </g>
</svg>
