<svg xmlns="http://www.w3.org/2000/svg" width="463.843" height="368.565" viewBox="0 0 463.843 368.565">
  <g id="_012-snowy-1" data-name="012-snowy-1" transform="translate(0 -0.396)">
    <path id="Caminho_41" data-name="Caminho 41" d="M367.836,288.961h8A88,88,0,1,0,358.41,114.7,71.864,71.864,0,0,0,257.762,63.609,95.923,95.923,0,1,0,77.434,129.082a79.959,79.959,0,0,0,2.4,159.879" fill="#a3d4f7"/>
    <g id="Grupo_7" data-name="Grupo 7">
      <path id="Caminho_42" data-name="Caminho 42" d="M263.836,336.961a32,32,0,1,1-32-32A32,32,0,0,1,263.836,336.961Zm0,0" fill="#b7f9fe"/>
      <path id="Caminho_43" data-name="Caminho 43" d="M247.836,240.961a32,32,0,1,1-32-32A32,32,0,0,1,247.836,240.961Zm0,0" fill="#b7f9fe"/>
      <path id="Caminho_44" data-name="Caminho 44" d="M175.836,296.961H163.145l10.348-10.344A8,8,0,0,0,162.18,275.3l-10.344,10.344V272.961a8,8,0,0,0-16,0v12.688L125.492,275.3a8,8,0,0,0-11.312,11.312l10.344,10.344H111.836a8,8,0,1,0,0,16h12.688L114.18,323.3a8,8,0,1,0,11.313,11.313l10.344-10.344v12.688a8,8,0,0,0,16,0V324.273l10.344,10.344A8,8,0,0,0,173.492,323.3l-10.348-10.344h12.691a8,8,0,1,0,0-16Zm0,0" fill="#b7f9fe"/>
      <path id="Caminho_45" data-name="Caminho 45" d="M335.836,264.961H323.145l10.348-10.344A8,8,0,0,0,322.18,243.3l-10.344,10.344V240.961a8,8,0,1,0-16,0v12.688L285.492,243.3a8,8,0,0,0-11.312,11.312l10.344,10.344H271.836a8,8,0,0,0,0,16h12.688L274.18,291.3a8,8,0,1,0,11.313,11.313l10.344-10.344v12.688a8,8,0,0,0,16,0V292.273l10.344,10.344A8,8,0,0,0,333.492,291.3l-10.348-10.344h12.691a8,8,0,0,0,0-16Zm0,0" fill="#b7f9fe"/>
    </g>
  </g>
</svg>
