<svg xmlns="http://www.w3.org/2000/svg" width="463.843" height="368.566" viewBox="0 0 463.843 368.566">
  <g id="_003-rainy" data-name="003-rainy" transform="translate(0.001 -0.395)">
    <path id="Caminho_3" data-name="Caminho 3" d="M367.836,288.961h8A88,88,0,1,0,358.41,114.7,71.864,71.864,0,0,0,257.762,63.609,95.923,95.923,0,1,0,77.434,129.082a79.959,79.959,0,0,0,2.4,159.879" fill="#d0dad9"/>
    <g id="Grupo_1" data-name="Grupo 1">
      <path id="Caminho_4" data-name="Caminho 4" d="M335.836,320.961a32,32,0,0,1-64,0c0-24,32-80,32-80S335.836,296.961,335.836,320.961Zm0,0" fill="#60a2d7"/>
      <path id="Caminho_5" data-name="Caminho 5" d="M255.836,240.961a32,32,0,0,1-64,0c0-24,32-80,32-80S255.836,216.961,255.836,240.961Zm0,0" fill="#60a2d7"/>
      <path id="Caminho_6" data-name="Caminho 6" d="M175.836,336.961a32,32,0,0,1-64,0c0-24,32-80,32-80S175.836,312.961,175.836,336.961Zm0,0" fill="#60a2d7"/>
    </g>
  </g>
</svg>
