<svg xmlns="http://www.w3.org/2000/svg" width="471.837" height="472" viewBox="0 0 471.837 472">
  <g id="_038-cloudy-3" data-name="038-cloudy-3" transform="translate(-0.499)">
    <path id="Caminho_190" data-name="Caminho 190" d="M400.336,192a120,120,0,1,1-120-120A120,120,0,0,1,400.336,192Zm0,0" fill="#fdd020"/>
    <path id="Caminho_191" data-name="Caminho 191" d="M280.336,48a8,8,0,0,1-8-8V8a8,8,0,0,1,16,0V40A8,8,0,0,1,280.336,48Zm0,0" fill="#fdd020"/>
    <path id="Caminho_192" data-name="Caminho 192" d="M464.336,200h-32a8,8,0,1,1,0-16h32a8,8,0,0,1,0,16Zm0,0" fill="#fdd020"/>
    <path id="Caminho_193" data-name="Caminho 193" d="M376.336,296a88.184,88.184,0,0,0-17.426,1.742,71.864,71.864,0,0,0-100.648-51.094A95.923,95.923,0,1,0,77.934,312.121,79.959,79.959,0,0,0,80.336,472h296a88,88,0,0,0,0-176Zm0,0" fill="#a3d4f7"/>
    <g id="Grupo_22" data-name="Grupo 22">
      <path id="Caminho_194" data-name="Caminho 194" d="M168.336,80l-32-32" fill="#fdd020"/>
      <path id="Caminho_195" data-name="Caminho 195" d="M168.336,88a7.994,7.994,0,0,1-5.656-2.344l-32-32a8,8,0,1,1,11.313-11.312l32,32A8,8,0,0,1,168.336,88Zm0,0" fill="#fdd020"/>
      <path id="Caminho_196" data-name="Caminho 196" d="M392.336,80l32-32" fill="#fdd020"/>
      <path id="Caminho_197" data-name="Caminho 197" d="M392.336,88a8,8,0,0,1-5.656-13.656l32-32a8,8,0,1,1,11.313,11.313l-32,32A8,8,0,0,1,392.336,88Zm0,0" fill="#fdd020"/>
    </g>
  </g>
</svg>
