<svg xmlns="http://www.w3.org/2000/svg" width="448" height="464.177" viewBox="0 0 448 464.177">
  <g id="_024-night-4" data-name="024-night-4" transform="translate(-0.09 0)">
    <path id="Caminho_104" data-name="Caminho 104" d="M360.09,336.164a168,168,0,0,1-168-168,173.592,173.592,0,0,1,112-160,247.242,247.242,0,0,0-72-8c-128.133,0-232,103.871-232,232s103.867,232,232,232a226.014,226.014,0,0,0,216-152A155.763,155.763,0,0,1,360.09,336.164Zm0,0" fill="#fce666"/>
    <path id="Caminho_105" data-name="Caminho 105" d="M352.09,202.3l44.5,21.863-8.5-46.312,36-32.8-49.754-6.75L352.09,96.164,329.84,138.3l-49.75,6.75,36,32.8-8.5,46.313Zm0,0" fill="#ffde3d"/>
  </g>
</svg>
