<svg id="_039-sun" data-name="039-sun" xmlns="http://www.w3.org/2000/svg" width="480" height="480" viewBox="0 0 480 480">
  <path id="Caminho_198" data-name="Caminho 198" d="M376,240A136,136,0,1,1,240,104,136,136,0,0,1,376,240Zm0,0" fill="#fdd020"/>
  <path id="Caminho_199" data-name="Caminho 199" d="M240,480a8,8,0,0,1-8-8V408a8,8,0,0,1,16,0v64A8,8,0,0,1,240,480Zm0,0" fill="#fdd020"/>
  <path id="Caminho_200" data-name="Caminho 200" d="M240,80a8,8,0,0,1-8-8V8a8,8,0,0,1,16,0V72A8,8,0,0,1,240,80Zm0,0" fill="#fdd020"/>
  <path id="Caminho_201" data-name="Caminho 201" d="M120,120,72,72" fill="#fdd020"/>
  <path id="Caminho_202" data-name="Caminho 202" d="M120,128a8,8,0,0,1-5.656-2.344l-48-48A8,8,0,0,1,77.656,66.344l48,48A8,8,0,0,1,120,128Zm0,0" fill="#fdd020"/>
  <path id="Caminho_203" data-name="Caminho 203" d="M408,408l-48-48" fill="#fdd020"/>
  <path id="Caminho_204" data-name="Caminho 204" d="M408,416a8,8,0,0,1-5.656-2.344l-48-48a8,8,0,0,1,11.312-11.312l48,48A8,8,0,0,1,408,416Zm0,0" fill="#fdd020"/>
  <path id="Caminho_205" data-name="Caminho 205" d="M360,120l48-48" fill="#fdd020"/>
  <path id="Caminho_206" data-name="Caminho 206" d="M360,128a8,8,0,0,1-5.656-13.656l48-48a8,8,0,0,1,11.312,11.312l-48,48A8,8,0,0,1,360,128Zm0,0" fill="#fdd020"/>
  <path id="Caminho_207" data-name="Caminho 207" d="M472,248H408a8,8,0,0,1,0-16h64a8,8,0,0,1,0,16Zm0,0" fill="#fdd020"/>
  <path id="Caminho_208" data-name="Caminho 208" d="M72,248H8a8,8,0,0,1,0-16H72a8,8,0,0,1,0,16Zm0,0" fill="#fdd020"/>
  <path id="Caminho_209" data-name="Caminho 209" d="M72,408l48-48" fill="#fdd020"/>
  <path id="Caminho_210" data-name="Caminho 210" d="M72,416a8,8,0,0,1-5.656-13.656l48-48a8,8,0,0,1,11.312,11.312l-48,48A8,8,0,0,1,72,416Zm0,0" fill="#fdd020"/>
</svg>
