<svg xmlns="http://www.w3.org/2000/svg" width="472.122" height="440" viewBox="0 0 472.122 440">
  <g id="_034-cloudy-1" data-name="034-cloudy-1" transform="translate(0 -0.063)">
    <g id="Grupo_18" data-name="Grupo 18">
      <path id="Caminho_159" data-name="Caminho 159" d="M416.121,160.063a104,104,0,1,1-104-104,104,104,0,0,1,104,104Zm0,0" fill="#fdd020"/>
      <path id="Caminho_160" data-name="Caminho 160" d="M464.121,168.063h-16a8,8,0,0,1,0-16h16a8,8,0,0,1,0,16Zm0,0" fill="#fdd020"/>
      <path id="Caminho_161" data-name="Caminho 161" d="M296.121,32.063a8,8,0,0,1-8-8v-16a8,8,0,0,1,16,0v16A8,8,0,0,1,296.121,32.063Zm0,0" fill="#fdd020"/>
      <path id="Caminho_162" data-name="Caminho 162" d="M408.121,72.063a8,8,0,0,1-5.652-13.656l16-16a8,8,0,1,1,11.309,11.313l-16,16A7.994,7.994,0,0,1,408.121,72.063Zm0,0" fill="#fdd020"/>
    </g>
    <path id="Caminho_163" data-name="Caminho 163" d="M363.156,360.063a83.137,83.137,0,1,0,0-166.227,86.934,86.934,0,0,0-16.8,1.648,69.161,69.161,0,0,0-68.137-54.535,70.378,70.378,0,0,0-29.039,6.281,92.943,92.943,0,0,0-179.535,31.5,88.537,88.537,0,0,0,5.422,30.336,75.512,75.512,0,1,0,2.3,151" fill="#a3d4f7"/>
    <path id="Caminho_164" data-name="Caminho 164" d="M328.121,392.063a32,32,0,0,1-64,0c0-24,32-80,32-80S328.121,368.063,328.121,392.063Zm0,0" fill="#60a2d7"/>
    <path id="Caminho_165" data-name="Caminho 165" d="M248.121,312.063a32,32,0,0,1-64,0c0-24,32-80,32-80S248.121,288.063,248.121,312.063Zm0,0" fill="#60a2d7"/>
    <path id="Caminho_166" data-name="Caminho 166" d="M176.121,408.063a32,32,0,0,1-64,0c0-24,32-80,32-80S176.121,384.063,176.121,408.063Zm0,0" fill="#60a2d7"/>
  </g>
</svg>
