<svg xmlns="http://www.w3.org/2000/svg" width="463.844" height="448.566" viewBox="0 0 463.844 448.566">
  <g id="_004-rainy-1" data-name="004-rainy-1" transform="translate(0.001 -0.395)">
    <path id="Caminho_7" data-name="Caminho 7" d="M367.836,288.961h8A88,88,0,1,0,358.41,114.7,71.864,71.864,0,0,0,257.762,63.609,95.923,95.923,0,1,0,77.434,129.082a79.959,79.959,0,0,0,2.4,159.879" fill="#d0dad9"/>
    <g id="Grupo_2" data-name="Grupo 2">
      <path id="Caminho_8" data-name="Caminho 8" d="M127.836,196.961a16,16,0,0,1,16,16v192a16,16,0,0,1-32,0v-192A16,16,0,0,1,127.836,196.961Zm0,0" fill="#60a2d7"/>
      <path id="Caminho_9" data-name="Caminho 9" d="M191.836,176.961a16,16,0,0,1,16,16v240a16,16,0,0,1-32,0v-240A16,16,0,0,1,191.836,176.961Zm0,0" fill="#60a2d7"/>
      <path id="Caminho_10" data-name="Caminho 10" d="M255.836,200.961a16,16,0,0,1,16,16v192a16,16,0,0,1-32,0v-192A16,16,0,0,1,255.836,200.961Zm0,0" fill="#60a2d7"/>
      <path id="Caminho_11" data-name="Caminho 11" d="M319.836,176.961a16,16,0,0,1,16,16v240a16,16,0,0,1-32,0v-240A16,16,0,0,1,319.836,176.961Zm0,0" fill="#60a2d7"/>
    </g>
  </g>
</svg>
