<?xml version="1.0" encoding="UTF-8"?>
<!DOCTYPE svg PUBLIC "-//W3C//DTD SVG 1.1//EN" "http://www.w3.org/Graphics/SVG/1.1/DTD/svg11.dtd">
<!-- Creator: CorelDRAW X8 -->
<svg xmlns="http://www.w3.org/2000/svg" xml:space="preserve" width="106.066mm" height="12.7mm" version="1.1" style="shape-rendering:geometricPrecision; text-rendering:geometricPrecision; image-rendering:optimizeQuality; fill-rule:evenodd; clip-rule:evenodd"
viewBox="0 0 8603 1030"
 xmlns:xlink="http://www.w3.org/1999/xlink">
 <defs>
  <style type="text/css">
   <![CDATA[
    .fil1 {fill:#373435;fill-rule:nonzero}
    .fil0 {fill:#D62C2A;fill-rule:nonzero}
   ]]>
  </style>
 </defs>
 <g id="Camada_x0020_1">
  <metadata id="CorelCorpID_0Corel-Layer"/>
  <g id="_2125981088640">
   <path class="fil0" d="M0 1030l224 0 22 -141 167 0 22 141 224 0 -197 -808 -265 0 -197 808zm388 -300l-117 0 57 -343 3 0 57 343zm306 300l197 0 0 -499 2 0 141 499 230 0 0 -808 -197 0 0 498 -2 0 -136 -498 -235 0 0 808zm881 -656l41 0c82,0 92,34 92,252 0,218 -10,252 -92,252l-41 0 0 -504zm-211 656l306 0c243,0 256,-192 256,-404 0,-212 -13,-404 -256,-404l-306 0 0 808zm650 0l210 0 0 -324 56 0c51,0 69,24 69,116l0 54c0,34 0,111 20,154l224 0 0 -11c-13,-7 -18,-16 -23,-25 -11,-16 -11,-70 -11,-112l0 -69c0,-108 -30,-172 -132,-181l0 -3c96,-14 138,-85 138,-192 0,-125 -61,-215 -222,-215l-329 0 0 808zm210 -656l41 0c64,0 90,28 90,94 0,57 -29,96 -89,96l-42 0 0 -190zm440 656l489 0 0 -172 -279 0 0 -161 251 0 0 -165 -251 0 0 -138 268 0 0 -172 -478 0 0 808zm150 -865l131 0 109 -165 -190 0 -50 165z"/>
   <path class="fil1" d="M3417 1030l225 0 21 -141 168 0 21 141 224 0 -197 -808 -265 0 -197 808zm389 -300l-118 0 58 -343 2 0 58 343zm305 300l470 0 0 -172 -259 0 0 -636 -211 0 0 808zm517 0l197 0 0 -602 2 0 112 602 152 0 112 -602 2 0 0 602 197 0 0 -808 -301 0 -85 479 -2 0 -85 -479 -301 0 0 808zm866 0l489 0 0 -172 -279 0 0 -161 251 0 0 -165 -251 0 0 -138 268 0 0 -172 -478 0 0 808zm566 0l197 0 0 -499 2 0 140 499 231 0 0 -808 -197 0 0 498 -2 0 -136 -498 -235 0 0 808zm605 0l224 0 22 -141 167 0 22 141 224 0 -197 -808 -265 0 -197 808zm388 -300l-117 0 57 -343 3 0 57 343zm306 300l211 0 0 -324 55 0c51,0 69,24 69,116l0 54c0,34 0,111 21,154l224 0 0 -11c-14,-7 -18,-16 -24,-25 -10,-16 -10,-70 -10,-112l0 -69c0,-108 -31,-172 -133,-181l0 -3c96,-14 138,-85 138,-192 0,-125 -61,-215 -222,-215l-329 0 0 808zm211 -656l40 0c64,0 90,28 90,94 0,57 -28,96 -88,96l-42 0 0 -190zm374 656l224 0 22 -141 168 0 21 141 224 0 -197 -808 -265 0 -197 808zm389 -300l-118 0 58 -343 2 0 58 343z"/>
  </g>
 </g>
</svg>
