<svg xmlns="http://www.w3.org/2000/svg" xmlns:xlink="http://www.w3.org/1999/xlink" width="64" height="64" viewBox="0 0 64 64">
  <defs>
    <filter id="Uni達o_11" x="6.597" y="8.961" width="50.805" height="50.078" filterUnits="userSpaceOnUse">
      <feOffset dy="3" input="SourceAlpha"/>
      <feGaussianBlur stdDeviation="3" result="blur"/>
      <feFlood flood-opacity="0.161"/>
      <feComposite operator="in" in2="blur"/>
      <feComposite in="SourceGraphic"/>
    </filter>
  </defs>
  <g id="Grupo_23" data-name="Grupo 23" transform="translate(-261 -74)">
    <circle id="Elipse_2" data-name="Elipse 2" cx="32" cy="32" r="32" transform="translate(261 74)" fill="#2ecc71"/>
    <g transform="matrix(1, 0, 0, 1, 261, 74)" filter="url(#Uni達o_11)">
      <path id="Uni達o_11-2" data-name="Uni達o 11" d="M24.708,21.28H-.735a1,1,0,0,1-.956-1.294l4.1-13.364a1,1,0,0,1,1.912,0l1.931,6.286,7.588-23.019a1,1,0,0,1,1.9,0L23.2,12.507l1.808-5.886a1,1,0,0,1,1.913,0l4.1,13.364a1,1,0,0,1-.957,1.294Z" transform="translate(17.33 25.76)" fill="#fff"/>
    </g>
  </g>
</svg>
