<?xml version="1.0" encoding="UTF-8"?>
<!DOCTYPE svg PUBLIC "-//W3C//DTD SVG 1.1//EN" "http://www.w3.org/Graphics/SVG/1.1/DTD/svg11.dtd">
<!-- Creator: CorelDRAW X8 -->
<svg xmlns="http://www.w3.org/2000/svg" xml:space="preserve" width="50.6438mm" height="26.2297mm" version="1.1" style="shape-rendering:geometricPrecision; text-rendering:geometricPrecision; image-rendering:optimizeQuality; fill-rule:evenodd; clip-rule:evenodd"
viewBox="0 0 1979 1025"
 xmlns:xlink="http://www.w3.org/1999/xlink">
 <defs>
  <style type="text/css">
   <![CDATA[
    .fil4 {fill:#848688;fill-rule:nonzero}
    .fil2 {fill:#8C183F;fill-rule:nonzero}
    .fil3 {fill:white;fill-rule:nonzero}
    .fil1 {fill:url(#id0)}
    .fil0 {fill:url(#id1)}
   ]]>
  </style>
  <linearGradient id="id0" gradientUnits="userSpaceOnUse" x1="0.00390809" y1="395.94" x2="1979.2" y2="395.94">
   <stop offset="0" style="stop-opacity:1; stop-color:#EF5336"/>
   <stop offset="1" style="stop-opacity:1; stop-color:#DD2074"/>
  </linearGradient>
  <linearGradient id="id1" gradientUnits="userSpaceOnUse" x1="1765.6" y1="790.883" x2="1765.6" y2="904.011">
   <stop offset="0" style="stop-opacity:1; stop-color:#B51660"/>
   <stop offset="0.231373" style="stop-opacity:1; stop-color:#B51660"/>
   <stop offset="0.439216" style="stop-opacity:1; stop-color:#EF5336"/>
   <stop offset="1" style="stop-opacity:1; stop-color:#EF5336"/>
  </linearGradient>
 </defs>
 <g id="Layer_x0020_1">
  <metadata id="CorelCorpID_0Corel-Layer"/>
  <polygon class="fil0" points="1611,791 1922,791 1611,904 "/>
  <path class="fil1" d="M1910 793l-1642 0c-51,0 -96,-40 -112,-99l-153 -586c-14,-53 19,-108 66,-108l1642 0c51,0 96,40 112,99l153 586c14,53 -19,108 -66,108z"/>
  <path class="fil2" d="M1556 662c-75,0 -139,-25 -188,-76 -50,-49 -75,-112 -75,-187 0,-75 25,-137 75,-188 49,-49 112,-75 188,-75 46,0 88,11 127,33 39,22 70,50 92,87l-64 37c-24,14 -54,12 -76,-5 -5,-3 -10,-7 -15,-10 -19,-10 -40,-16 -64,-16 -40,0 -72,13 -97,38 -25,24 -37,58 -37,99 0,41 12,73 37,99 25,25 58,38 97,38 24,0 45,-5 64,-16 5,-3 10,-6 15,-10 21,-17 52,-19 76,-5l63 37c-22,37 -53,66 -92,87 -38,21 -81,32 -127,32l1 1z"/>
  <path class="fil2" d="M1556 662c-75,0 -139,-25 -188,-76 -50,-49 -75,-112 -75,-187 0,-75 25,-137 75,-188 49,-49 112,-75 188,-75 46,0 88,11 127,33 39,22 70,50 92,87l-64 37c-24,14 -54,12 -76,-5 -5,-3 -10,-7 -15,-10 -19,-10 -40,-16 -64,-16 -40,0 -72,13 -97,38 -25,24 -37,58 -37,99 0,41 12,73 37,99 25,25 58,38 97,38 24,0 45,-5 64,-16 5,-3 10,-6 15,-10 21,-17 52,-19 76,-5l63 37c-22,37 -53,66 -92,87 -38,21 -81,32 -127,32l1 1z"/>
  <path class="fil3" d="M1556 649c-75,0 -139,-25 -188,-75 -50,-50 -75,-113 -75,-188 0,-74 25,-137 75,-188 49,-49 112,-75 188,-75 46,0 88,11 127,33 39,22 70,50 92,87l-64 37c-24,14 -54,12 -76,-5 -5,-3 -10,-7 -15,-10 -19,-10 -40,-16 -64,-16 -40,0 -72,13 -97,38 -25,25 -37,58 -37,99 0,41 12,73 37,99 25,25 58,38 97,38 24,0 45,-5 64,-16 5,-3 10,-6 15,-10 21,-17 52,-19 76,-5l63 37c-22,37 -53,66 -92,87 -38,21 -81,32 -127,32l1 1z"/>
  <path class="fil3" d="M1556 649c-75,0 -139,-25 -188,-75 -50,-50 -75,-113 -75,-188 0,-74 25,-137 75,-188 49,-49 112,-75 188,-75 46,0 88,11 127,33 39,22 70,50 92,87l-64 37c-24,14 -54,12 -76,-5 -5,-3 -10,-7 -15,-10 -19,-10 -40,-16 -64,-16 -40,0 -72,13 -97,38 -25,25 -37,58 -37,99 0,41 12,73 37,99 25,25 58,38 97,38 24,0 45,-5 64,-16 5,-3 10,-6 15,-10 21,-17 52,-19 76,-5l63 37c-22,37 -53,66 -92,87 -38,21 -81,32 -127,32l1 1z"/>
  <path class="fil2" d="M1266 148l0 503 -58 0c-38,0 -70,-31 -70,-69l0 -203 -122 203 -13 0 -122 -202 0 202c0,37 -30,69 -69,69l-60 0 0 -503 90 0c25,0 46,13 59,34l108 181 109 -181c13,-21 34,-34 59,-34l89 0 0 0 0 0z"/>
  <path class="fil2" d="M1266 148l0 503 -58 0c-38,0 -70,-31 -70,-69l0 -203 -122 203 -13 0 -122 -202 0 202c0,37 -30,69 -69,69l-60 0 0 -503 90 0c25,0 46,13 59,34l108 181 109 -181c13,-21 34,-34 59,-34l89 0 0 0 0 0z"/>
  <path class="fil3" d="M1266 134l0 503 -58 0c-38,0 -70,-31 -70,-69l0 -203 -122 203 -13 0 -122 -202 0 202c0,37 -30,69 -69,69l-60 0 0 -503 90 0c25,0 46,13 59,34l108 181 109 -181c13,-21 34,-34 59,-34l89 0 0 0 0 0z"/>
  <path class="fil3" d="M1266 134l0 503 -58 0c-38,0 -70,-31 -70,-69l0 -203 -122 203 -13 0 -122 -202 0 202c0,37 -30,69 -69,69l-60 0 0 -503 90 0c25,0 46,13 59,34l108 181 109 -181c13,-21 34,-34 59,-34l89 0 0 0 0 0z"/>
  <path class="fil2" d="M674 363c28,0 51,23 51,51 0,73 -23,134 -70,179 -46,46 -106,69 -180,69 -79,0 -143,-25 -194,-76 -51,-50 -75,-112 -75,-186 0,-74 24,-136 75,-187 51,-50 113,-76 187,-76 46,0 90,11 129,32 38,21 69,49 91,84l-65 37c-22,13 -51,12 -74,-3 -5,-3 -10,-6 -16,-9 -20,-10 -42,-14 -65,-14 -40,0 -73,13 -99,39 -25,25 -37,58 -37,99 0,39 13,71 37,98 25,27 61,41 107,41 58,0 97,-22 116,-67l-54 0c-38,0 -69,-30 -69,-69l0 -42 202 0 3 0z"/>
  <path class="fil2" d="M674 363c28,0 51,23 51,51 0,73 -23,134 -70,179 -46,46 -106,69 -180,69 -79,0 -143,-25 -194,-76 -51,-50 -75,-112 -75,-186 0,-74 24,-136 75,-187 51,-50 113,-76 187,-76 46,0 90,11 129,32 38,21 69,49 91,84l-65 37c-22,13 -51,12 -74,-3 -5,-3 -10,-6 -16,-9 -20,-10 -42,-14 -65,-14 -40,0 -73,13 -99,39 -25,25 -37,58 -37,99 0,39 13,71 37,98 25,27 61,41 107,41 58,0 97,-22 116,-67l-54 0c-38,0 -69,-30 -69,-69l0 -42 202 0 3 0z"/>
  <path class="fil3" d="M674 349c28,0 51,23 51,51 0,73 -23,134 -70,180 -46,45 -106,68 -180,68 -79,0 -143,-25 -194,-75 -51,-51 -75,-113 -75,-187 0,-73 24,-136 75,-187 51,-50 113,-76 187,-76 46,0 90,11 129,32 38,21 69,49 91,84l-65 37c-22,13 -51,12 -74,-3 -5,-3 -10,-6 -16,-9 -20,-10 -42,-14 -65,-14 -40,0 -73,13 -99,39 -25,26 -37,58 -37,99 0,39 13,71 37,98 25,27 61,41 107,41 58,0 97,-22 116,-67l-54 0c-38,0 -69,-30 -69,-69l0 -42 202 0 3 0z"/>
  <path class="fil3" d="M674 349c28,0 51,23 51,51 0,73 -23,134 -70,180 -46,45 -106,68 -180,68 -79,0 -143,-25 -194,-75 -51,-51 -75,-113 -75,-187 0,-73 24,-136 75,-187 51,-50 113,-76 187,-76 46,0 90,11 129,32 38,21 69,49 91,84l-65 37c-22,13 -51,12 -74,-3 -5,-3 -10,-6 -16,-9 -20,-10 -42,-14 -65,-14 -40,0 -73,13 -99,39 -25,26 -37,58 -37,99 0,39 13,71 37,98 25,27 61,41 107,41 58,0 97,-22 116,-67l-54 0c-38,0 -69,-30 -69,-69l0 -42 202 0 3 0z"/>
  <path class="fil4" d="M366 975c-10,-10 -14,-23 -14,-39 0,-16 4,-30 14,-40 10,-11 23,-16 38,-16 15,0 28,5 38,16 10,11 15,24 15,40 0,16 -5,30 -15,39 -10,11 -23,16 -38,16 -15,0 -28,-5 -38,-16zm-50 -39c0,25 8,45 25,63 16,18 38,26 63,26 26,0 47,-9 64,-26 17,-18 25,-38 25,-63 0,-25 -8,-46 -25,-64 -17,-18 -38,-26 -64,-26 -26,0 -47,9 -63,26 -17,17 -25,39 -25,64zm301 85l0 -110 88 110 29 0 0 -172 -35 0 0 111 -86 -111 -30 0 0 172 34 0zm334 0l0 -32 -87 0 0 -140 -36 0 0 172 122 0 1 0zm119 0l0 -172 -35 0 0 172 35 0zm131 0l0 -110 87 110 29 0 0 -172 -35 0 0 111 -86 -111 -30 0 0 172 35 0zm340 0l0 -32 -93 0 0 -43 73 0 0 -31 -73 0 0 -33 90 0 0 -32 -126 0 0 172 129 0 0 -1z"/>
 </g>
</svg>
