<svg xmlns="http://www.w3.org/2000/svg" width="64" height="64" viewBox="0 0 64 64">
  <g id="Grupo_13" data-name="Grupo 13" transform="translate(-160 -11)">
    <circle id="Elipse_4" data-name="Elipse 4" cx="32" cy="32" r="32" transform="translate(160 11)" fill="black"/>
    <path id="Caminho_139" data-name="Caminho 139" d="M8.777-17.062A6.708,6.708,0,0,1,13.4-15.557a5.026,5.026,0,0,1,1.693,3.943A4.986,4.986,0,0,1,13.4-7.676,6.759,6.759,0,0,1,8.777-6.187H5.895V-2.4l1.828.352V0H.656V-2.051L2.473-2.4V-14.648L.656-15v-2.062H8.777ZM5.895-8.824H8.777A2.827,2.827,0,0,0,10.939-9.6a2.785,2.785,0,0,0,.732-1.986,2.9,2.9,0,0,0-.732-2.033,2.781,2.781,0,0,0-2.162-.8H5.895Z" transform="translate(192 52)" fill="#fff"/>
    <path id="Caminho_138" data-name="Caminho 138" d="M17.121-12.621l-.07-.012L12.48,0h-2.3L5.637-12.586l-.07.012.328,7.488V-2.4l1.828.352V0H.656V-2.051L2.473-2.4V-14.648L.656-15v-2.062H6.938L11.285-4.488h.07l4.383-12.574h6.3V-15l-1.828.352V-2.4l1.828.352V0H14.977V-2.051L16.793-2.4V-5.086Z" transform="translate(177 52)" fill="#fff"/>
  </g>
</svg>
