<?xml version="1.0" encoding="UTF-8"?>
<!DOCTYPE svg PUBLIC "-//W3C//DTD SVG 1.1//EN" "http://www.w3.org/Graphics/SVG/1.1/DTD/svg11.dtd">
<!-- Creator: CorelDRAW X8 -->
<svg xmlns="http://www.w3.org/2000/svg" xml:space="preserve" width="108.12mm" height="12.7mm" version="1.1" style="shape-rendering:geometricPrecision; text-rendering:geometricPrecision; image-rendering:optimizeQuality; fill-rule:evenodd; clip-rule:evenodd"
viewBox="0 0 9089 1068"
 xmlns:xlink="http://www.w3.org/1999/xlink">
 <defs>
  <style type="text/css">
   <![CDATA[
    .fil0 {fill:#373435;fill-rule:nonzero}
   ]]>
  </style>
 </defs>
 <g id="Camada_x0020_1">
  <metadata id="CorelCorpID_0Corel-Layer"/>
  <path class="fil0" d="M812 433l-3 -1 -226 623 -113 0 -224 -620 -4 0 16 369 0 133 91 17 0 101 -349 0 0 -101 90 -17 0 -604 -90 -17 0 -102 90 0 220 0 214 620 4 0 216 -620 311 0 0 102 -90 17 0 604 90 17 0 101 -349 0 0 -101 90 -17 0 -133 16 -371zm294 521l60 -8 256 -732 173 0 254 732 60 8 0 101 -286 0 0 -101 58 -10 -37 -116 -273 0 -37 116 59 10 0 101 -287 0 0 -101zm305 -250l193 0 -94 -296 -4 0 -95 296zm932 -490c96,0 170,22 225,66 54,43 81,104 81,181 0,42 -11,79 -34,110 -22,31 -56,57 -100,76 50,14 86,39 108,73 21,34 32,76 32,127l0 43c0,18 4,32 11,43 7,10 19,16 36,18l21 3 0 101 -87 0c-55,0 -94,-14 -116,-44 -23,-30 -34,-68 -34,-115l0 -48c0,-41 -10,-73 -32,-96 -22,-24 -53,-36 -92,-37l-139 0 0 222 91 17 0 101 -349 0 0 -101 90 -17 0 -604 -90 -17 0 -102 90 0 288 0zm-120 371l117 0c47,0 82,-10 106,-30 23,-20 35,-49 35,-87 0,-38 -12,-68 -35,-90 -23,-23 -57,-34 -103,-34l-120 0 0 241zm555 -269l0 -102 349 0 0 102 -90 17 0 604 90 17 0 101 -349 0 0 -101 90 -17 0 -604 -90 -17zm1273 -102l0 102 -90 17 0 722 -168 0 -340 -566 -4 1 0 447 91 17 0 101 -349 0 0 -101 89 -17 0 -604 -89 -17 0 -102 89 0 169 0 340 566 4 0 0 -447 -91 -17 0 -102 259 0 90 0zm752 748c-27,27 -67,51 -120,73 -52,22 -118,32 -199,33 -113,-1 -206,-38 -277,-115 -71,-76 -107,-175 -107,-296l0 -29c0,-126 35,-229 105,-308 71,-79 163,-118 276,-118 66,0 126,10 181,31 54,21 99,50 136,86l0 169 -125 0 -24 -113c-15,-13 -36,-23 -61,-31 -25,-8 -54,-12 -87,-12 -73,0 -131,27 -171,81 -41,55 -62,126 -62,214l0 30c0,85 20,153 60,204 40,52 98,77 174,77 34,0 61,-3 82,-9 21,-5 38,-12 50,-20l0 -143 -121 -9 0 -118 290 0 0 323zm76 -8l60 -8 256 -732 173 0 254 732 60 8 0 101 -287 0 0 -101 59 -10 -37 -116 -273 0 -37 116 58 10 0 101 -286 0 0 -101zm305 -250l193 0 -95 -296 -4 0 -94 296zm107 -704l178 0 1 3 -159 151 -135 0 115 -154zm1137 214c97,0 173,25 228,74 56,50 84,114 84,195 0,80 -28,145 -84,194 -55,49 -131,73 -228,73l-142 0 0 187 90 17 0 101 -348 0 0 -101 89 -17 0 -604 -89 -17 0 -102 89 0 311 0zm-142 406l142 0c47,0 83,-13 107,-38 24,-26 36,-58 36,-98 0,-41 -12,-74 -36,-101 -24,-26 -60,-39 -107,-39l-142 0 0 276zm1277 21c0,123 -35,225 -106,306 -70,80 -163,120 -277,121 -113,-1 -205,-41 -275,-121 -70,-81 -105,-183 -105,-306l0 -13c0,-122 35,-224 105,-305 69,-81 161,-121 275,-121 114,0 206,40 277,121 70,81 106,183 106,305l0 13zm-168 -14c0,-87 -19,-158 -55,-212 -36,-54 -90,-81 -160,-81 -71,0 -124,27 -159,80 -35,54 -52,125 -52,213l0 14c0,89 17,160 53,214 35,54 88,81 158,81 71,0 125,-27 161,-81 36,-54 54,-125 54,-214l0 -14zm875 -144l-127 0 -22 -116c-15,-9 -36,-17 -64,-24 -28,-7 -58,-11 -90,-11 -46,0 -82,10 -107,30 -25,19 -38,44 -38,75 0,29 14,52 40,70 26,19 72,38 137,58 92,26 163,60 211,103 48,42 72,98 72,167 0,72 -29,128 -86,170 -57,42 -132,62 -225,63 -67,-1 -127,-11 -181,-32 -53,-21 -98,-51 -134,-88l0 -176 130 0 18 120c17,14 40,25 69,34 29,9 62,14 98,14 46,0 81,-10 105,-29 24,-18 36,-44 36,-75 0,-33 -11,-59 -34,-78 -23,-20 -63,-38 -121,-56 -99,-29 -175,-63 -226,-103 -51,-39 -77,-94 -77,-163 0,-68 29,-124 87,-167 58,-43 130,-65 218,-67 64,0 123,10 177,30 53,20 97,46 134,79l0 172zm819 -269l0 224 -129 0 -7 -94 -155 0 0 593 90 17 0 101 -349 0 0 -101 90 -17 0 -593 -154 0 -7 94 -129 0 0 -224 750 0z"/>
 </g>
</svg>
